ffmpeg version 8.0.1 Copyright (c) 2000-2025 the FFmpeg developers
  built with Apple clang version 17.0.0 (clang-1700.6.3.2)
  configuration: --prefix=/opt/homebrew/Cellar/ffmpeg/8.0.1_1 --enable-shared --enable-pthreads --enable-version3 --cc=clang --host-cflags= --host-ldflags= --enable-ffplay --enable-gpl --enable-libsvtav1 --enable-libopus --enable-libx264 --enable-libmp3lame --enable-libdav1d --enable-libvpx --enable-libx265 --enable-videotoolbox --enable-audiotoolbox --enable-neon
  libavutil      60.  8.100 / 60.  8.100
  libavcodec     62. 11.100 / 62. 11.100
  libavformat    62.  3.100 / 62.  3.100
  libavdevice    62.  1.100 / 62.  1.100
  libavfilter    11.  4.100 / 11.  4.100
  libswscale      9.  1.100 /  9.  1.100
  libswresample   6.  1.100 /  6.  1.100
[rawvideo @ 0x159004190] Stream #0: not enough frames to estimate rate; consider increasing probesize
[rawvideo @ 0x159004190] Estimating duration from bitrate, this may be inaccurate
Input #0, rawvideo, from 'render.rgb':
  Duration: 00:00:01.73, start: 0.000000, bitrate: 2654208 kb/s
  Stream #0:0: Video: rawvideo (RGB[24] / 0x18424752), rgb24, 1280x720, 2654208 kb/s, 120 tbr, 120 tbn
Stream mapping:
  Stream #0:0 -> #0:0 (rawvideo (native) -> h264 (libx264))
Press [q] to stop, [?] for help
[libx264 @ 0x147e051e0] using cpu capabilities: ARMv8 NEON DotProd I8MM
[libx264 @ 0x147e051e0] profile High, level 4.2, 4:2:0, 8-bit
[libx264 @ 0x147e051e0] 264 - core 165 r3222 b35605a - H.264/MPEG-4 AVC codec - Copyleft 2003-2025 - http://www.videolan.org/x264.html - options: cabac=1 ref=3 deblock=1:0:0 analyse=0x3:0x113 me=hex subme=7 psy=1 psy_rd=1.00:0.00 mixed_ref=1 me_range=16 chroma_me=1 trellis=1 8x8dct=1 cqm=0 deadzone=21,11 fast_pskip=1 chroma_qp_offset=-2 threads=16 lookahead_threads=2 sliced_threads=0 nr=0 decimate=1 interlaced=0 bluray_compat=0 constrained_intra=0 bframes=3 b_pyramid=2 b_adapt=1 b_bias=0 direct=1 weightb=1 open_gop=0 weightp=2 keyint=250 keyint_min=25 scenecut=40 intra_refresh=0 rc_lookahead=40 rc=crf mbtree=1 crf=20.0 qcomp=0.60 qpmin=0 qpmax=69 qpstep=4 ip_ratio=1.40 aq=1:1.00
Output #0, mp4, to 'render.mp4':
  Metadata:
    encoder         : Lavf62.3.100
  Stream #0:0: Video: h264 (avc1 / 0x31637661), yuv420p(tv, progressive), 1280x720, q=2-31, 120 fps, 15360 tbn
    Metadata:
      encoder         : Lavc62.11.100 libx264
    Side data:
      cpb: bitrate max/min/avg: 0/0/0 buffer size: 0 vbv_delay: N/A
[out#0/mp4 @ 0x600003374000] video:56KiB audio:0KiB subtitle:0KiB other streams:0KiB global headers:0KiB muxing overhead: 5.741444%
frame=  208 fps=0.0 q=-1.0 Lsize=      59KiB time=00:00:01.71 bitrate= 283.1kbits/s speed=4.25x elapsed=0:00:00.40    
[libx264 @ 0x147e051e0] frame I:1     Avg QP:14.56  size:  7783
[libx264 @ 0x147e051e0] frame P:56    Avg QP:18.57  size:   401
[libx264 @ 0x147e051e0] frame B:151   Avg QP:24.68  size:   176
[libx264 @ 0x147e051e0] consecutive B-frames:  1.4%  1.9% 10.1% 86.5%
[libx264 @ 0x147e051e0] mb I  I16..4: 37.3% 53.0%  9.7%
[libx264 @ 0x147e051e0] mb P  I16..4:  0.1%  0.1%  0.0%  P16..4:  2.1%  0.6%  0.2%  0.0%  0.0%    skip:96.9%
[libx264 @ 0x147e051e0] mb B  I16..4:  0.0%  0.0%  0.0%  B16..8:  2.5%  0.2%  0.0%  direct: 0.0%  skip:97.3%  L0:62.3% L1:37.1% BI: 0.7%
[libx264 @ 0x147e051e0] 8x8 transform intra:51.6% inter:56.0%
[libx264 @ 0x147e051e0] coded y,uvDC,uvAC intra: 11.2% 0.9% 0.8% inter: 0.1% 0.1% 0.0%
[libx264 @ 0x147e051e0] i16 v,h,dc,p: 11%  7%  1% 81%
[libx264 @ 0x147e051e0] i8 v,h,dc,ddl,ddr,vr,hd,vl,hu: 29%  6% 14% 12% 10% 10%  6% 11%  2%
[libx264 @ 0x147e051e0] i4 v,h,dc,ddl,ddr,vr,hd,vl,hu: 36% 13% 25%  3%  8%  7%  4%  3%  0%
[libx264 @ 0x147e051e0] i8c dc,h,v,p: 99%  1%  1%  0%
[libx264 @ 0x147e051e0] Weighted P-Frames: Y:0.0% UV:0.0%
[libx264 @ 0x147e051e0] ref P L0: 77.9%  3.7% 13.3%  5.1%
[libx264 @ 0x147e051e0] ref B L0: 22.8% 73.2%  4.0%
[libx264 @ 0x147e051e0] ref B L1: 95.8%  4.2%
[libx264 @ 0x147e051e0] kb/s:261.93
